<svg xmlns="http://www.w3.org/2000/svg" width="48" height="48" viewBox="0 0 48 48">
  <g id="Group_56" data-name="Group 56" transform="translate(-936 -265)">
    <rect id="Rectangle_78" data-name="Rectangle 78" width="48" height="48" rx="4.174" transform="translate(936 265)" fill="#5d52b0"/>
    <path id="Path_208" data-name="Path 208" d="M973.184,279.759a.474.474,0,0,1-.474.474H954.215a2.368,2.368,0,0,0-1.661,4.056l9.33,9.183.027.028H955.89a1.42,1.42,0,0,1-1.017-.428l-6.157-6.308a6.631,6.631,0,0,1,4.745-11.264H972.71a.474.474,0,0,1,.474.474Z" fill="#fff"/>
    <path id="Path_209" data-name="Path 209" d="M946.816,298.241a.474.474,0,0,1,.474-.474h18.495a2.369,2.369,0,0,0,1.662-4.056l-9.331-9.183-.026-.028h6.02a1.42,1.42,0,0,1,1.017.428l6.157,6.308a6.631,6.631,0,0,1-4.745,11.264H947.29a.474.474,0,0,1-.474-.474Z" fill="#fff"/>
  </g>
</svg>
